<svg width="18" height="18" viewBox="0 0 18 18" fill="none" xmlns="http://www.w3.org/2000/svg">
<path d="M14.5727 0H6.17054C6.05477 0.00594643 5.9442 0.0496071 5.85554 0.124286L2.41411 3.57857C2.32914 3.65957 2.28109 3.77191 2.28125 3.88929V16.8514C2.28243 17.4853 2.79596 17.9988 3.42982 18H14.5727C15.1991 17.9989 15.7096 17.497 15.7213 16.8707V1.14857C15.7201 0.514714 15.2065 0.00117857 14.5727 0ZM10.182 0.857143H12.6998V4.87714L11.8063 3.45214C11.77 3.39182 11.7196 3.3413 11.6593 3.30514C11.4563 3.18337 11.193 3.24916 11.0712 3.45214L10.182 4.87071V0.857143ZM5.73768 1.46786V2.66143C5.7365 3.10002 5.38127 3.45525 4.94268 3.45643H3.74911L5.73768 1.46786ZM14.8555 16.86C14.8544 17.0157 14.7284 17.1417 14.5727 17.1429H3.42982C3.42763 17.1429 3.42543 17.143 3.42323 17.143C3.26584 17.1441 3.13732 17.0174 3.13625 16.86V4.32214H4.94268C5.85891 4.31979 6.60104 3.57766 6.60339 2.66143V0.857143H9.31625V5.23286C9.31443 5.42593 9.37786 5.61391 9.49625 5.76643C9.6763 5.99539 9.98134 6.08561 10.257 5.99143L10.2891 5.98071C10.4937 5.89484 10.6645 5.7443 10.7755 5.55214L11.442 4.48071L12.1084 5.55214C12.2194 5.7443 12.3902 5.89484 12.5948 5.98071C12.8774 6.0922 13.1997 6.00509 13.3877 5.76643C13.5061 5.61391 13.5695 5.42593 13.5677 5.23286V0.857143H14.5727C14.7276 0.858268 14.8532 0.982982 14.8555 1.13786V16.86Z" fill="#949DA6"/>
<path d="M12.7771 14.3145H5.22349C4.98681 14.3145 4.79492 14.5063 4.79492 14.743C4.79492 14.9797 4.98681 15.1716 5.22349 15.1716H12.7771C13.0137 15.1716 13.2056 14.9797 13.2056 14.743C13.2056 14.5063 13.0137 14.3145 12.7771 14.3145Z" fill="#949DA6"/>
<path d="M12.7771 12.2036H5.22349C4.98681 12.2036 4.79492 12.3955 4.79492 12.6322C4.79492 12.8689 4.98681 13.0608 5.22349 13.0608H12.7771C13.0137 13.0608 13.2056 12.8689 13.2056 12.6322C13.2056 12.3955 13.0137 12.2036 12.7771 12.2036Z" fill="#949DA6"/>
<path d="M12.7771 10.0928H5.22349C4.98681 10.0928 4.79492 10.2847 4.79492 10.5213C4.79492 10.758 4.98681 10.9499 5.22349 10.9499H12.7771C13.0137 10.9499 13.2056 10.758 13.2056 10.5213C13.2056 10.2847 13.0137 10.0928 12.7771 10.0928Z" fill="#949DA6"/>
<path d="M12.7771 7.98218H5.22349C4.98681 7.98218 4.79492 8.17407 4.79492 8.41075C4.79492 8.64743 4.98681 8.83932 5.22349 8.83932H12.7771C13.0137 8.83932 13.2056 8.64743 13.2056 8.41075C13.2056 8.17407 13.0137 7.98218 12.7771 7.98218Z" fill="#949DA6"/>
</svg>
