<svg width="16" height="16" viewBox="0 0 16 16" fill="none" xmlns="http://www.w3.org/2000/svg">
<g clip-path="url(#clip0_262_4267)">
<path d="M13.8704 6.15374L4.42038 0.328572C3.73669 -0.0923355 2.9101 -0.109836 2.20919 0.281759C1.50828 0.673291 1.08984 1.38645 1.08984 2.18929V13.7866C1.08984 15.0005 2.06797 15.9934 3.27016 16C3.27344 16 3.27672 16 3.27994 16C3.65563 16 4.04713 15.8822 4.41279 15.6591C4.70694 15.4796 4.79991 15.0957 4.62044 14.8016C4.44098 14.5074 4.05697 14.4144 3.76291 14.5939C3.59188 14.6982 3.42485 14.7522 3.27688 14.7522C2.82328 14.7497 2.33763 14.3611 2.33763 13.7866V2.18933C2.33763 1.84492 2.51713 1.53907 2.81775 1.3711C3.11841 1.20314 3.47294 1.21064 3.76585 1.39098L13.2159 7.21615C13.4999 7.39102 13.6625 7.68262 13.6618 8.01618C13.6611 8.34971 13.4974 8.64065 13.2118 8.81493L6.37935 12.9983C6.08548 13.1783 5.9931 13.5623 6.17304 13.8562C6.35295 14.1501 6.73704 14.2424 7.03092 14.0625L13.8625 9.87962C14.5166 9.48059 14.9081 8.78496 14.9096 8.01868C14.9112 7.25249 14.5226 6.55524 13.8704 6.15374Z" fill="#949DA6"/>
</g>
<defs>
<clipPath id="clip0_262_4267">
<rect width="16" height="16" fill="white"/>
</clipPath>
</defs>
</svg>
